<?xml version="1.0" encoding="UTF-8"?>
<!DOCTYPE svg PUBLIC "-//W3C//DTD SVG 1.1//EN" "http://www.w3.org/Graphics/SVG/1.1/DTD/svg11.dtd">
<svg xmlns="http://www.w3.org/2000/svg" version="1.1" width="583px" height="200px" style="shape-rendering:geometricPrecision; text-rendering:geometricPrecision; image-rendering:optimizeQuality; fill-rule:evenodd; clip-rule:evenodd" xmlns:xlink="http://www.w3.org/1999/xlink">
<g><path style="opacity:0.004" fill="#020202" d="M -0.5,-0.5 C 86.5,-0.5 173.5,-0.5 260.5,-0.5C 260.5,19.1667 260.5,38.8333 260.5,58.5C 306.167,58.5 351.833,58.5 397.5,58.5C 397.5,57.1667 397.5,55.8333 397.5,54.5C 458.5,54.5 519.5,54.5 580.5,54.5C 580.5,85.1667 580.5,115.833 580.5,146.5C 473.834,147.2 367.167,147.866 260.5,148.5C 260.5,165.5 260.5,182.5 260.5,199.5C 173.5,199.5 86.5,199.5 -0.5,199.5C -0.5,132.833 -0.5,66.1667 -0.5,-0.5 Z"/></g>
<g><path style="opacity:1" fill="#2e645c" d="M 114.5,16.5 C 114.5,16.8333 114.5,17.1667 114.5,17.5C 114.167,17.5 113.833,17.5 113.5,17.5C 113.167,17.5 112.833,17.5 112.5,17.5C 111.732,16.7375 111.232,15.7375 111,14.5C 110.814,17.0356 110.314,19.369 109.5,21.5C 109.5,20.8333 109.167,20.5 108.5,20.5C 108.5,19.8333 108.5,19.1667 108.5,18.5C 108.672,17.5084 108.338,16.8417 107.5,16.5C 109.184,9.07356 111.517,9.07356 114.5,16.5 Z"/></g>
<g><path style="opacity:0.986" fill="#282b2b" d="M 113.5,17.5 C 113.833,17.5 114.167,17.5 114.5,17.5C 121.656,28.4716 128.823,39.4716 136,50.5C 136.499,55.4889 136.666,60.4889 136.5,65.5C 141.845,65.6865 147.178,66.0199 152.5,66.5C 151.235,67.4793 149.901,68.4793 148.5,69.5C 148.024,72.7929 147.024,75.7929 145.5,78.5C 146.051,75.1933 146.384,71.8599 146.5,68.5C 141.57,68.8025 136.737,68.4692 132,67.5C 125.728,50.8483 119.561,34.1816 113.5,17.5 Z"/></g>
<g><path style="opacity:1" fill="#34cbb6" d="M 107.5,16.5 C 108.338,16.8417 108.672,17.5084 108.5,18.5C 102.407,31.2384 96.5733,44.2384 91,57.5C 90.5004,64.4921 90.3337,71.4921 90.5,78.5C 72.8307,79.5557 55.1641,80.7224 37.5,82C 41.8568,115.204 44.8568,148.371 46.5,181.5C 44.1404,165.036 41.1404,148.703 37.5,132.5C 36.9434,127.948 35.9434,123.615 34.5,119.5C 34.0912,115.124 33.4245,110.79 32.5,106.5C 32.4349,103.572 31.7682,100.905 30.5,98.5C 30.2012,94.0725 29.5346,89.7391 28.5,85.5C 28.4349,82.5718 27.7682,79.9052 26.5,77.5C 23.8219,61.0972 20.8219,44.7638 17.5,28.5C 41.1884,33.3383 64.855,38.3383 88.5,43.5C 90.5795,43.3142 92.0795,42.3142 93,40.5C 98.1091,32.6058 102.942,24.6058 107.5,16.5 Z"/></g>
<g><path style="opacity:1" fill="#34c7b2" d="M 114.5,16.5 C 121.969,25.479 129.303,34.6457 136.5,44C 141.755,45.8134 147.088,47.3134 152.5,48.5C 153.413,54.4797 153.413,60.4797 152.5,66.5C 147.178,66.0199 141.845,65.6865 136.5,65.5C 136.666,60.4889 136.499,55.4889 136,50.5C 128.823,39.4716 121.656,28.4716 114.5,17.5C 114.5,17.1667 114.5,16.8333 114.5,16.5 Z"/></g>
<g><path style="opacity:1" fill="#34c7b2" d="M 112.5,17.5 C 112.833,17.5 113.167,17.5 113.5,17.5C 119.561,34.1816 125.728,50.8483 132,67.5C 136.737,68.4692 141.57,68.8025 146.5,68.5C 146.384,71.8599 146.051,75.1933 145.5,78.5C 144.841,81.4552 144.508,84.4552 144.5,87.5C 137.957,88.9437 131.291,89.6104 124.5,89.5C 125.096,80.8342 125.262,72.1675 125,63.5C 120.547,48.2553 116.38,32.922 112.5,17.5 Z"/></g>
<g><path style="opacity:1" fill="#fbfbd2" d="M 521.5,63.5 C 525.182,63.3347 528.848,63.5014 532.5,64C 534.141,65.129 535.141,66.629 535.5,68.5C 535.5,80.5 535.5,92.5 535.5,104.5C 536.791,104.737 537.791,104.404 538.5,103.5C 539.496,103.586 540.329,103.252 541,102.5C 542.659,95.9937 546.159,90.827 551.5,87C 555.871,86.1725 560.205,86.3391 564.5,87.5C 562.628,89.9099 561.295,92.5766 560.5,95.5C 558.412,97.3356 557.079,99.6689 556.5,102.5C 555.221,104.123 553.887,105.79 552.5,107.5C 555.248,110.081 557.414,113.081 559,116.5C 560.736,122.389 563.236,127.889 566.5,133C 557.719,140.328 551.219,138.828 547,128.5C 546.464,124.549 544.964,121.049 542.5,118C 540.527,117.505 538.527,117.338 536.5,117.5C 535.51,123.645 535.177,129.978 535.5,136.5C 531.167,136.5 526.833,136.5 522.5,136.5C 521.502,112.339 521.169,88.0057 521.5,63.5 Z"/></g>
<g><path style="opacity:0.999" fill="#737366" d="M 237.5,68.5 C 234.5,68.5 231.5,68.5 228.5,68.5C 230.487,67.6568 232.654,66.9902 235,66.5C 236.301,66.6387 237.134,67.3054 237.5,68.5 Z"/></g>
<g><path style="opacity:0.995" fill="#fbfbd2" d="M 185.5,68.5 C 191.206,68.1712 196.872,68.5046 202.5,69.5C 209.293,85.0958 216.127,100.762 223,116.5C 223.499,112.848 223.665,109.182 223.5,105.5C 223.189,94.0857 223.523,82.7524 224.5,71.5C 225.436,70.0256 226.77,69.0256 228.5,68.5C 231.5,68.5 234.5,68.5 237.5,68.5C 237.833,91.1765 237.5,113.843 236.5,136.5C 230.636,137.816 224.803,137.816 219,136.5C 211.806,120.583 204.806,104.583 198,88.5C 198.369,104.81 198.536,121.144 198.5,137.5C 193.833,137.5 189.167,137.5 184.5,137.5C 184.5,137.167 184.5,136.833 184.5,136.5C 184.178,113.758 184.511,91.0916 185.5,68.5 Z"/></g>
<g><path style="opacity:0.998" fill="#f9f9d1" d="M 356.5,68.5 C 367.172,68.3335 377.839,68.5002 388.5,69C 402.163,72.9657 406.33,81.4657 401,94.5C 399.316,96.3513 397.483,98.018 395.5,99.5C 407.157,107.086 409.657,117.086 403,129.5C 399.323,133.423 394.823,135.923 389.5,137C 378.505,137.5 367.505,137.667 356.5,137.5C 356.5,114.5 356.5,91.5 356.5,68.5 Z"/></g>
<g><path style="opacity:0.995" fill="#c7c7a8" d="M 183.5,68.5 C 184.167,68.5 184.833,68.5 185.5,68.5C 184.511,91.0916 184.178,113.758 184.5,136.5C 183.503,114.006 183.169,91.3395 183.5,68.5 Z"/></g>
<g><path style="opacity:1" fill="#c6c6a9" d="M 535.5,68.5 C 535.841,80.3691 536.841,92.0358 538.5,103.5C 537.791,104.404 536.791,104.737 535.5,104.5C 535.5,92.5 535.5,80.5 535.5,68.5 Z"/></g>
<g><path style="opacity:0.868" fill="#727165" d="M 224.5,71.5 C 223.523,82.7524 223.189,94.0857 223.5,105.5C 221.889,95.3363 221.556,85.003 222.5,74.5C 222.64,72.9704 223.307,71.9704 224.5,71.5 Z"/></g>
<g><path style="opacity:1" fill="#252626" d="M 112.5,17.5 C 116.38,32.922 120.547,48.2553 125,63.5C 125.262,72.1675 125.096,80.8342 124.5,89.5C 131.291,89.6104 137.957,88.9437 144.5,87.5C 143.436,93.6811 142.102,99.6811 140.5,105.5C 141.127,100.859 141.46,96.1925 141.5,91.5C 132.19,92.6455 122.857,93.6455 113.5,94.5C 113.5,98.5 113.5,102.5 113.5,106.5C 112.836,108.978 112.503,111.645 112.5,114.5C 112.522,117.59 113.188,120.257 114.5,122.5C 111.063,124.608 108.729,127.608 107.5,131.5C 108.11,125.185 108.443,118.851 108.5,112.5C 98.8619,114.607 89.1952,116.607 79.5,118.5C 79.6664,126.174 79.4997,133.841 79,141.5C 70.509,153.516 62.8423,165.849 56,178.5C 57.7186,175.712 59.8852,173.379 62.5,171.5C 60.9315,175.855 58.4315,178.855 55,180.5C 53.0394,183.463 50.706,186.129 48,188.5C 47.338,186.187 46.838,183.854 46.5,181.5C 44.8568,148.371 41.8568,115.204 37.5,82C 55.1641,80.7224 72.8307,79.5557 90.5,78.5C 90.3337,71.4921 90.5004,64.4921 91,57.5C 96.5733,44.2384 102.407,31.2384 108.5,18.5C 108.5,19.1667 108.5,19.8333 108.5,20.5C 103.375,41.3344 99.0415,62.3344 95.5,83.5C 83.4976,83.7633 71.4976,84.0966 59.5,84.5C 60.3338,96.5052 61.3338,108.505 62.5,120.5C 57.6166,141.417 53.4499,162.417 50,183.5C 55.4459,163.508 61.4459,143.841 68,124.5C 68.9533,121.568 69.4533,118.568 69.5,115.5C 79.997,113.959 90.3303,111.626 100.5,108.5C 104.225,79.5797 107.225,50.5797 109.5,21.5C 110.314,19.369 110.814,17.0356 111,14.5C 111.232,15.7375 111.732,16.7375 112.5,17.5 Z"/></g>
<g><path style="opacity:1" fill="#34c8b3" d="M 108.5,20.5 C 109.167,20.5 109.5,20.8333 109.5,21.5C 107.225,50.5797 104.225,79.5797 100.5,108.5C 90.3303,111.626 79.997,113.959 69.5,115.5C 69.4533,118.568 68.9533,121.568 68,124.5C 61.4459,143.841 55.4459,163.508 50,183.5C 53.4499,162.417 57.6166,141.417 62.5,120.5C 61.3338,108.505 60.3338,96.5052 59.5,84.5C 71.4976,84.0966 83.4976,83.7633 95.5,83.5C 99.0415,62.3344 103.375,41.3344 108.5,20.5 Z"/></g>
<g><path style="opacity:0.004" fill="#010101" d="M 372.5,79.5 C 376.644,79.33 380.644,79.9967 384.5,81.5C 389.122,87.2701 388.122,91.7701 381.5,95C 378.518,95.498 375.518,95.6646 372.5,95.5C 372.5,90.1667 372.5,84.8333 372.5,79.5 Z"/></g>
<g><path style="opacity:0.208" fill="#2b5952" d="M 26.5,77.5 C 27.7682,79.9052 28.4349,82.5718 28.5,85.5C 26.9605,83.1617 26.2938,80.4951 26.5,77.5 Z"/></g>
<g><path style="opacity:0.198" fill="#292929" d="M 183.5,68.5 C 183.169,91.3395 183.503,114.006 184.5,136.5C 184.5,136.833 184.5,137.167 184.5,137.5C 183.168,126.353 182.501,114.853 182.5,103C 182.5,91.3284 182.833,79.8284 183.5,68.5 Z"/></g>
<g><path style="opacity:1" fill="#f7f7cf" d="M 285.5,134.5 C 279.075,137.461 272.408,138.461 265.5,137.5C 252.928,133.556 247.261,124.89 248.5,111.5C 248.5,92.6644 257.833,84.1644 276.5,86C 284.502,88.0029 290.002,92.8362 293,100.5C 296.739,113.31 294.239,124.643 285.5,134.5 Z"/></g>
<g><path style="opacity:1" fill="#f8f8d0" d="M 339.5,132.5 C 334.727,135.871 329.393,137.871 323.5,138.5C 311.281,137.783 303.781,131.449 301,119.5C 299.028,109.673 300.695,100.673 306,92.5C 316.438,83.7941 327.271,83.2941 338.5,91C 341.567,94.2975 343.733,98.1308 345,102.5C 347.023,113.325 345.19,123.325 339.5,132.5 Z"/></g>
<g><path style="opacity:1" fill="#f7f7cf" d="M 431.5,85.5 C 440.963,83.65 448.463,86.65 454,94.5C 455.088,107.204 456.088,119.87 457,132.5C 455.517,136.665 452.684,138.165 448.5,137C 446.359,135.692 444.359,134.192 442.5,132.5C 432.937,140.82 423.77,140.487 415,131.5C 410.752,119.537 414.252,111.037 425.5,106C 430.155,105.501 434.821,105.334 439.5,105.5C 440.145,102.453 439.145,100.287 436.5,99C 430.877,98.1778 425.377,98.6778 420,100.5C 419.167,100.167 418.333,99.8333 417.5,99.5C 415.973,96.3404 415.307,93.007 415.5,89.5C 420.943,88.1392 426.276,86.8059 431.5,85.5 Z"/></g>
<g><path style="opacity:1" fill="#fafad2" d="M 467.5,86.5 C 473.499,85.3768 478.499,87.0435 482.5,91.5C 491.681,84.2807 500.181,84.9474 508,93.5C 509.27,105.096 509.936,116.762 510,128.5C 512.59,132.394 511.757,135.227 507.5,137C 504.5,137.667 501.5,137.667 498.5,137C 496.185,135.891 494.685,134.057 494,131.5C 493.667,121.5 493.333,111.5 493,101.5C 489.285,99.867 486.118,100.534 483.5,103.5C 482.833,114.5 482.167,125.5 481.5,136.5C 476.833,136.5 472.167,136.5 467.5,136.5C 467.5,119.833 467.5,103.167 467.5,86.5 Z"/></g>
<g><path style="opacity:1" fill="#34cdb7" d="M 140.5,105.5 C 140.632,108.57 140.299,111.57 139.5,114.5C 131.389,116.426 123.389,118.759 115.5,121.5C 113.558,116.944 112.892,111.944 113.5,106.5C 113.5,102.5 113.5,98.5 113.5,94.5C 122.857,93.6455 132.19,92.6455 141.5,91.5C 141.46,96.1925 141.127,100.859 140.5,105.5 Z"/></g>
<g><path style="opacity:0.004" fill="#050504" d="M 268.5,97.5 C 272.355,96.8454 275.188,98.1788 277,101.5C 277.667,108.5 277.667,115.5 277,122.5C 271.214,128.554 267.214,127.554 265,119.5C 264.333,114.167 264.333,108.833 265,103.5C 265.564,101.113 266.73,99.1133 268.5,97.5 Z"/></g>
<g><path style="opacity:0.004" fill="#090908" d="M 319.5,97.5 C 323.639,96.7042 326.805,98.0375 329,101.5C 329.667,108.167 329.667,114.833 329,121.5C 326.84,125.917 323.506,127.251 319,125.5C 318.138,123.913 317.471,122.246 317,120.5C 316.333,114.167 316.333,107.833 317,101.5C 318.481,100.529 319.315,99.1958 319.5,97.5 Z"/></g>
<g><path style="opacity:0.024" fill="#626159" d="M 521.5,63.5 C 521.169,88.0057 521.502,112.339 522.5,136.5C 522.5,136.833 522.5,137.167 522.5,137.5C 521.168,125.519 520.501,113.185 520.5,100.5C 520.5,87.9954 520.833,75.6621 521.5,63.5 Z"/></g>
<g><path style="opacity:0.012" fill="#585854" d="M 560.5,95.5 C 559.921,98.3311 558.588,100.664 556.5,102.5C 557.079,99.6689 558.412,97.3356 560.5,95.5 Z"/></g>
<g><path style="opacity:0.192" fill="#2a524b" d="M 30.5,98.5 C 31.7682,100.905 32.4349,103.572 32.5,106.5C 30.9605,104.162 30.2938,101.495 30.5,98.5 Z"/></g>
<g><path style="opacity:0.004" fill="#060605" d="M 372.5,106.5 C 377.951,106.159 383.118,107.159 388,109.5C 391.442,114.463 391.275,119.297 387.5,124C 382.797,126.36 377.963,126.86 373,125.5C 372.5,119.175 372.334,112.842 372.5,106.5 Z"/></g>
<g><path style="opacity:1" fill="#34c9b4" d="M 107.5,131.5 C 101.078,133.363 94.7449,135.53 88.5,138C 79.2121,148.775 70.5454,159.942 62.5,171.5C 59.8852,173.379 57.7186,175.712 56,178.5C 62.8423,165.849 70.509,153.516 79,141.5C 79.4997,133.841 79.6664,126.174 79.5,118.5C 89.1952,116.607 98.8619,114.607 108.5,112.5C 108.443,118.851 108.11,125.185 107.5,131.5 Z"/></g>
<g><path style="opacity:0.012" fill="#68675c" d="M 431.5,116.5 C 433.948,115.527 436.615,115.194 439.5,115.5C 439.5,117.833 439.5,120.167 439.5,122.5C 438.539,120.735 438.205,118.735 438.5,116.5C 436.167,116.5 433.833,116.5 431.5,116.5 Z"/></g>
<g><path style="opacity:0.043" fill="#303030" d="M 483.5,103.5 C 484.144,115.216 483.478,126.549 481.5,137.5C 481.5,137.167 481.5,136.833 481.5,136.5C 482.167,125.5 482.833,114.5 483.5,103.5 Z"/></g>
<g><path style="opacity:0.004" fill="#0e0e0c" d="M 431.5,116.5 C 433.833,116.5 436.167,116.5 438.5,116.5C 438.205,118.735 438.539,120.735 439.5,122.5C 437.235,126.416 433.902,127.416 429.5,125.5C 427.719,121.814 428.386,118.814 431.5,116.5 Z"/></g>
<g><path style="opacity:0.997" fill="#c7c7aa" d="M 536.5,117.5 C 536.5,124.167 536.5,130.833 536.5,137.5C 531.833,137.5 527.167,137.5 522.5,137.5C 522.5,137.167 522.5,136.833 522.5,136.5C 526.833,136.5 531.167,136.5 535.5,136.5C 535.177,129.978 535.51,123.645 536.5,117.5 Z"/></g>
<g><path style="opacity:0.088" fill="#2c3b38" d="M 139.5,114.5 C 131.795,117.735 123.795,120.402 115.5,122.5C 115.5,122.167 115.5,121.833 115.5,121.5C 123.389,118.759 131.389,116.426 139.5,114.5 Z"/></g>
<g><path style="opacity:0.405" fill="#9c9c87" d="M 467.5,86.5 C 467.5,103.167 467.5,119.833 467.5,136.5C 472.167,136.5 476.833,136.5 481.5,136.5C 481.5,136.833 481.5,137.167 481.5,137.5C 476.5,137.5 471.5,137.5 466.5,137.5C 466.818,121.452 466.485,105.452 465.5,89.5C 465.942,88.2613 466.609,87.2613 467.5,86.5 Z"/></g>
<g><path style="opacity:0.898" fill="#2f877a" d="M 113.5,106.5 C 112.892,111.944 113.558,116.944 115.5,121.5C 115.5,121.833 115.5,122.167 115.5,122.5C 115.167,122.5 114.833,122.5 114.5,122.5C 113.188,120.257 112.522,117.59 112.5,114.5C 112.503,111.645 112.836,108.978 113.5,106.5 Z"/></g>
<g><path style="opacity:0.194" fill="#283e3a" d="M 34.5,119.5 C 35.9434,123.615 36.9434,127.948 37.5,132.5C 36.8826,132.389 36.3826,132.056 36,131.5C 35.1721,127.534 34.6721,123.534 34.5,119.5 Z"/></g>
<g><path style="opacity:0.031" fill="#4c4c48" d="M 339.5,132.5 C 338.327,134.504 336.66,136.004 334.5,137C 330.734,138.535 327.067,139.035 323.5,138.5C 329.393,137.871 334.727,135.871 339.5,132.5 Z"/></g>
<g><path style="opacity:0.02" fill="#4c4c46" d="M 285.5,134.5 C 284.251,136.136 282.584,137.303 280.5,138C 277.5,138.5 274.5,139 271.5,139.5C 269.201,139.401 267.201,138.734 265.5,137.5C 272.408,138.461 279.075,137.461 285.5,134.5 Z"/></g>
</svg>
